<?xml version="1.0" encoding="UTF-8" standalone="no"?>
<!-- Created with Inkscape (http://www.inkscape.org/) -->

<svg
   width="32.926582mm"
   height="30.323921mm"
   viewBox="0 0 164.63292 151.6196"
   version="1.1"
   id="svg5"
   sodipodi:docname="logo-small.svg"
   inkscape:version="1.1 (c68e22c387, 2021-05-23)"
   inkscape:export-filename="C:\Users\WilliamL\logo.png"
   inkscape:export-xdpi="89.915916"
   inkscape:export-ydpi="89.915916"
   xmlns:inkscape="http://www.inkscape.org/namespaces/inkscape"
   xmlns:sodipodi="http://sodipodi.sourceforge.net/DTD/sodipodi-0.dtd"
   xmlns="http://www.w3.org/2000/svg"
   xmlns:svg="http://www.w3.org/2000/svg">
  <sodipodi:namedview
     id="namedview7"
     pagecolor="#505050"
     bordercolor="#eeeeee"
     borderopacity="1"
     inkscape:pageshadow="0"
     inkscape:pageopacity="0"
     inkscape:pagecheckerboard="0"
     inkscape:document-units="mm"
     showgrid="false"
     inkscape:zoom="2"
     inkscape:cx="-329.5"
     inkscape:cy="-56"
     inkscape:window-width="3840"
     inkscape:window-height="2080"
     inkscape:window-x="-11"
     inkscape:window-y="-11"
     inkscape:window-maximized="1"
     inkscape:current-layer="g23219"
     lock-margins="false"
     fit-margin-top="2"
     fit-margin-left="2"
     fit-margin-right="2"
     fit-margin-bottom="2" />
  <defs
     id="defs2">
    <inkscape:perspective
       sodipodi:type="inkscape:persp3d"
       inkscape:vp_x="0 : -1735.1248 : 1"
       inkscape:vp_y="0 : 20000.004 : 0"
       inkscape:vp_z="11051.27 : -1735.1248 : 1"
       inkscape:persp3d-origin="5525.6349 : -3116.5336 : 1"
       id="perspective23932" />
  </defs>
  <g
     inkscape:label="Layer 1"
     inkscape:groupmode="layer"
     id="layer1"
     transform="translate(93.726031,262.15299)">
    <g
       id="g23219"
       transform="matrix(0,0.29517282,-0.29517282,0,303.71551,-388.90901)">
      <path
         fill="#000000"
         d="m 865.12977,1312.5922 c 125.97815,-5.7782 -52.14793,-370.76251 -110.65024,-278.2274 -24.73041,35.6695 83.36326,57.978 90.90775,152.083 2.64287,78.4009 -210.7252,57.2614 -298.76135,-69.9185 -110.23374,-168.93439 115.91809,80.438 151.67511,54.6254 C 589.0585,928.43605 394.13451,991.51234 488.22758,1141.5475 c 85.54499,133.484 273.74066,170.838 376.90219,171.0447 M 464.18533,977.00435 c 42.85931,-55.43156 252.63496,136.79155 252.2063,-2.64782 -161.39584,11.81784 -279.53513,-115.75454 -97.68564,-69.1535 107.51894,31.22035 178.20549,-66.48937 89.30659,-82.60481 -23.01154,109.0758 -138.42852,-23.47755 -196.54493,44.52905 -20.73885,20.91242 -53.44474,83.57336 -47.28232,109.87708"
         id="path23217"
         sodipodi:nodetypes="ccccccccccccc"
         style="fill:#005b81;fill-opacity:1;stroke-width:0.835181" />
      <path
         fill="#000000"
         d="m 865.12977,1312.5922 c 125.97815,-5.7782 -52.14793,-370.76251 -110.65024,-278.2274 -24.73041,35.6695 83.36326,57.978 90.90775,152.083 2.64287,78.4009 -210.7252,57.2614 -298.76135,-69.9185 -110.23374,-168.93439 115.91809,80.438 151.67511,54.6254 C 589.0585,928.43605 394.13451,991.51234 488.22758,1141.5475 c 85.54499,133.484 273.74066,170.838 376.90219,171.0447 M 464.18533,977.00435 c 42.85931,-55.43156 252.63496,136.79155 252.2063,-2.64782 -161.39584,11.81784 -279.53513,-115.75454 -97.68564,-69.1535 107.51894,31.22035 178.20549,-66.48937 89.30659,-82.60481 -23.01154,109.0758 -138.42852,-23.47755 -196.54493,44.52905 -20.73885,20.91242 -53.44474,83.57336 -47.28232,109.87708"
         id="path918"
         sodipodi:nodetypes="ccccccccccccc"
         style="fill:#005b81;fill-opacity:1;stroke-width:0.835181" />
      <path
         fill="#000000"
         d="m 865.12977,1312.5922 c 125.97815,-5.7782 -52.14793,-370.76251 -110.65024,-278.2274 -24.73041,35.6695 83.36326,57.978 90.90775,152.083 2.64287,78.4009 -210.7252,57.2614 -298.76135,-69.9185 -110.23374,-168.93439 115.91809,80.438 151.67511,54.6254 C 589.0585,928.43605 394.13451,991.51234 488.22758,1141.5475 c 85.54499,133.484 273.74066,170.838 376.90219,171.0447 M 464.18533,977.00435 c 42.85931,-55.43156 252.63496,136.79155 252.2063,-2.64782 -161.39584,11.81784 -279.53513,-115.75454 -97.68564,-69.1535 107.51894,31.22035 178.20549,-66.48937 89.30659,-82.60481 -23.01154,109.0758 -138.42852,-23.47755 -196.54493,44.52905 -20.73885,20.91242 -53.44474,83.57336 -47.28232,109.87708"
         id="path920"
         sodipodi:nodetypes="ccccccccccccc"
         style="fill:#005b81;fill-opacity:1;stroke-width:0.835181" />
      <path
         fill="#000000"
         d="m 865.12977,1312.5922 c 125.97815,-5.7782 -52.14793,-370.76251 -110.65024,-278.2274 -24.73041,35.6695 83.36326,57.978 90.90775,152.083 2.64287,78.4009 -210.7252,57.2614 -298.76135,-69.9185 -110.23374,-168.93439 115.91809,80.438 151.67511,54.6254 C 589.0585,928.43605 394.13451,991.51234 488.22758,1141.5475 c 85.54499,133.484 273.74066,170.838 376.90219,171.0447 M 464.18533,977.00435 c 42.85931,-55.43156 252.63496,136.79155 252.2063,-2.64782 -161.39584,11.81784 -279.53513,-115.75454 -97.68564,-69.1535 107.51894,31.22035 178.20549,-66.48937 89.30659,-82.60481 -23.01154,109.0758 -138.42852,-23.47755 -196.54493,44.52905 -20.73885,20.91242 -53.44474,83.57336 -47.28232,109.87708"
         id="path922"
         sodipodi:nodetypes="ccccccccccccc"
         style="fill:#005b81;fill-opacity:1;stroke-width:0.835181" />
    </g>
  </g>
</svg>
