<?xml version="1.0" encoding="UTF-8" standalone="no"?>
<!-- Created with Inkscape (http://www.inkscape.org/) -->

<svg
   width="144.6329mm"
   height="130.49881mm"
   viewBox="0 0 144.6329 130.49882"
   version="1.1"
   id="svg5"
   sodipodi:docname="logo.svg"
   inkscape:version="1.1 (c68e22c387, 2021-05-23)"
   inkscape:export-filename="C:\Users\WilliamL\logo.png"
   inkscape:export-xdpi="89.915916"
   inkscape:export-ydpi="89.915916"
   xmlns:inkscape="http://www.inkscape.org/namespaces/inkscape"
   xmlns:sodipodi="http://sodipodi.sourceforge.net/DTD/sodipodi-0.dtd"
   xmlns="http://www.w3.org/2000/svg"
   xmlns:svg="http://www.w3.org/2000/svg">
  <sodipodi:namedview
     id="namedview7"
     pagecolor="#505050"
     bordercolor="#eeeeee"
     borderopacity="1"
     inkscape:pageshadow="0"
     inkscape:pageopacity="0"
     inkscape:pagecheckerboard="0"
     inkscape:document-units="mm"
     showgrid="false"
     inkscape:zoom="0.5"
     inkscape:cx="442"
     inkscape:cy="124"
     inkscape:window-width="1918"
     inkscape:window-height="2068"
     inkscape:window-x="-10"
     inkscape:window-y="0"
     inkscape:window-maximized="1"
     inkscape:current-layer="g23219" />
  <defs
     id="defs2">
    <inkscape:perspective
       sodipodi:type="inkscape:persp3d"
       inkscape:vp_x="0 : -76.712521 : 1"
       inkscape:vp_y="0 : 1000.0002 : 0"
       inkscape:vp_z="552.56348 : -76.712521 : 1"
       inkscape:persp3d-origin="276.28173 : -145.78296 : 1"
       id="perspective23932" />
  </defs>
  <g
     inkscape:label="Layer 1"
     inkscape:groupmode="layer"
     id="layer1"
     transform="translate(83.726031,251.03219)">
    <g
       id="g23219"
       transform="matrix(0,0.29517282,-0.29517282,0,303.71551,-388.90901)">
      <path
         fill="#000000"
         d="m 865.12977,1312.5922 c 125.97815,-5.7782 -52.14793,-370.76251 -110.65024,-278.2274 -24.73041,35.6695 83.36326,57.978 90.90775,152.083 2.64287,78.4009 -210.7252,57.2614 -298.76135,-69.9185 -101.67707,-175.90649 135.15041,87.5321 170.90743,61.7195 -109.24254,-242.7187 -313.25761,-193.70856 -229.30578,-36.7013 78.8898,137.287 273.74066,170.838 376.90219,171.0447 M 467.94868,977.51933 c 42.85931,-55.43156 252.63496,136.79157 252.2063,-2.64782 -161.39584,11.81784 -283.29848,-116.26952 -101.44899,-69.66848 107.51894,31.22035 178.20549,-66.48937 89.30659,-82.60481 -23.01154,109.0758 -138.42852,-23.47755 -196.54493,44.52905 -20.73885,20.91242 -49.68139,84.08834 -43.51897,110.39206"
         id="path23217"
         sodipodi:nodetypes="ccccccccccccc"
         style="fill:#005b81;fill-opacity:1;stroke-width:0.835181" />
    </g>
  </g>
</svg>
